<svg xmlns="http://www.w3.org/2000/svg" viewBox="0 0 1000 800">
<defs>
<radialGradient id="bgGrad" cx="50%" cy="50%" r="50%"><stop offset="0%" stop-color="#111820"/><stop offset="50%" stop-color="#0a0e14"/><stop offset="100%" stop-color="#06080c"/></radialGradient>
<filter id="nodeGlow" x="-50%" y="-50%" width="200%" height="200%"><feGaussianBlur stdDeviation="6" result="blur"/><feMerge><feMergeNode in="blur"/><feMergeNode in="SourceGraphic"/></feMerge></filter>
<filter id="softGlow" x="-50%" y="-50%" width="200%" height="200%"><feGaussianBlur stdDeviation="12"/></filter>
<filter id="churnPulse" x="-50%" y="-50%" width="200%" height="200%"><feGaussianBlur stdDeviation="4" result="blur"/><feMerge><feMergeNode in="blur"/><feMergeNode in="SourceGraphic"/></feMerge></filter>
</defs>
<rect width="1000" height="800" fill="url(#bgGrad)"/>
<circle cx="4.3" cy="70.4" r="0.3" fill="#c9d1d9" opacity="0.1"/>
<circle cx="143.1" cy="431.2" r="1.1" fill="#c9d1d9" opacity="0.3"/>
<circle cx="548.1" cy="648.2" r="0.8" fill="#c9d1d9" opacity="0.3"/>
<circle cx="232.9" cy="622.9" r="1.0" fill="#c9d1d9" opacity="0.2"/>
<circle cx="468.4" cy="683.8" r="0.5" fill="#c9d1d9" opacity="0.4"/>
<circle cx="157.3" cy="643.8" r="1.1" fill="#c9d1d9" opacity="0.2"/>
<circle cx="96.0" cy="65.6" r="1.0" fill="#c9d1d9" opacity="0.1"/>
<circle cx="336.6" cy="163.2" r="0.3" fill="#c9d1d9" opacity="0.3"/>
<circle cx="655.7" cy="212.4" r="0.8" fill="#c9d1d9" opacity="0.2"/>
<circle cx="481.4" cy="385.8" r="0.9" fill="#c9d1d9" opacity="0.3"/>
<circle cx="454.5" cy="322.7" r="1.1" fill="#c9d1d9" opacity="0.3"/>
<circle cx="315.6" cy="659.6" r="1.0" fill="#c9d1d9" opacity="0.4"/>
<circle cx="719.7" cy="43.0" r="0.4" fill="#c9d1d9" opacity="0.4"/>
<circle cx="805.6" cy="176.1" r="0.4" fill="#c9d1d9" opacity="0.3"/>
<circle cx="149.2" cy="729.1" r="0.6" fill="#c9d1d9" opacity="0.4"/>
<circle cx="342.6" cy="88.9" r="0.7" fill="#c9d1d9" opacity="0.1"/>
<circle cx="433.5" cy="499.1" r="0.4" fill="#c9d1d9" opacity="0.5"/>
<circle cx="296.9" cy="101.6" r="1.1" fill="#c9d1d9" opacity="0.3"/>
<circle cx="143.9" cy="688.3" r="0.3" fill="#c9d1d9" opacity="0.2"/>
<circle cx="509.7" cy="522.1" r="0.3" fill="#c9d1d9" opacity="0.2"/>
<circle cx="25.9" cy="514.2" r="0.8" fill="#c9d1d9" opacity="0.2"/>
<circle cx="101.2" cy="425.2" r="0.9" fill="#c9d1d9" opacity="0.5"/>
<circle cx="456.4" cy="222.6" r="0.4" fill="#c9d1d9" opacity="0.1"/>
<circle cx="878.5" cy="691.1" r="0.5" fill="#c9d1d9" opacity="0.2"/>
<circle cx="360.0" cy="206.8" r="0.8" fill="#c9d1d9" opacity="0.4"/>
<circle cx="768.7" cy="597.2" r="0.9" fill="#c9d1d9" opacity="0.1"/>
<circle cx="507.6" cy="718.4" r="0.9" fill="#c9d1d9" opacity="0.4"/>
<circle cx="689.4" cy="66.3" r="0.8" fill="#c9d1d9" opacity="0.2"/>
<circle cx="48.7" cy="82.3" r="0.5" fill="#c9d1d9" opacity="0.5"/>
<circle cx="209.8" cy="781.4" r="0.7" fill="#c9d1d9" opacity="0.5"/>
<circle cx="157.1" cy="159.1" r="0.3" fill="#c9d1d9" opacity="0.4"/>
<circle cx="504.1" cy="779.3" r="1.1" fill="#c9d1d9" opacity="0.4"/>
<circle cx="669.8" cy="726.7" r="0.8" fill="#c9d1d9" opacity="0.3"/>
<circle cx="854.1" cy="766.0" r="0.3" fill="#c9d1d9" opacity="0.4"/>
<circle cx="854.2" cy="722.3" r="1.2" fill="#c9d1d9" opacity="0.3"/>
<circle cx="80.8" cy="741.9" r="0.7" fill="#c9d1d9" opacity="0.3"/>
<circle cx="949.4" cy="502.3" r="0.7" fill="#c9d1d9" opacity="0.1"/>
<circle cx="794.6" cy="674.9" r="0.7" fill="#c9d1d9" opacity="0.1"/>
<circle cx="205.9" cy="139.4" r="1.2" fill="#c9d1d9" opacity="0.3"/>
<circle cx="522.5" cy="524.2" r="1.1" fill="#c9d1d9" opacity="0.3"/>
<circle cx="254.0" cy="677.3" r="0.3" fill="#c9d1d9" opacity="0.4"/>
<circle cx="808.0" cy="99.5" r="0.7" fill="#c9d1d9" opacity="0.1"/>
<circle cx="302.3" cy="767.9" r="1.1" fill="#c9d1d9" opacity="0.2"/>
<circle cx="912.1" cy="526.9" r="0.3" fill="#c9d1d9" opacity="0.5"/>
<circle cx="382.5" cy="213.3" r="0.9" fill="#c9d1d9" opacity="0.1"/>
<circle cx="784.2" cy="749.5" r="0.5" fill="#c9d1d9" opacity="0.3"/>
<circle cx="686.0" cy="496.2" r="1.1" fill="#c9d1d9" opacity="0.2"/>
<circle cx="276.1" cy="203.8" r="1.1" fill="#c9d1d9" opacity="0.3"/>
<circle cx="560.4" cy="231.9" r="0.4" fill="#c9d1d9" opacity="0.4"/>
<circle cx="670.4" cy="151.6" r="0.5" fill="#c9d1d9" opacity="0.2"/>
<circle cx="113.7" cy="341.9" r="0.7" fill="#c9d1d9" opacity="0.3"/>
<circle cx="747.7" cy="527.6" r="0.4" fill="#c9d1d9" opacity="0.5"/>
<circle cx="553.9" cy="749.6" r="0.9" fill="#c9d1d9" opacity="0.5"/>
<circle cx="948.5" cy="298.1" r="0.3" fill="#c9d1d9" opacity="0.3"/>
<circle cx="197.0" cy="45.0" r="0.9" fill="#c9d1d9" opacity="0.3"/>
<circle cx="609.0" cy="725.5" r="1.0" fill="#c9d1d9" opacity="0.2"/>
<circle cx="742.5" cy="583.2" r="1.1" fill="#c9d1d9" opacity="0.1"/>
<circle cx="840.7" cy="449.3" r="0.8" fill="#c9d1d9" opacity="0.4"/>
<circle cx="530.1" cy="301.8" r="0.7" fill="#c9d1d9" opacity="0.5"/>
<circle cx="816.5" cy="748.8" r="0.9" fill="#c9d1d9" opacity="0.2"/>
<circle cx="500.0" cy="400.0" r="200.0" fill="none" stroke="#bc8cff" stroke-width="0.5" opacity="0.3" stroke-dasharray="8 4"/>
<circle cx="500.0" cy="400.0" r="300.0" fill="none" stroke="#30363d" stroke-width="0.5" opacity="0.3"/>
<text x="431.4" y="212.1" font-family="monospace" font-size="8" font-weight="600" fill="#484f58" text-anchor="start" transform="rotate(-70 431.4 212.1)">Infrastructure</text>
<text x="397.1" y="118.2" font-family="monospace" font-size="8" font-weight="600" fill="#484f58" text-anchor="start" transform="rotate(-70 397.1 118.2)">Outer</text>
<line x1="500.0" y1="400.0" x2="650.0" y2="480.0" stroke="#bc8cff" stroke-width="0.5" opacity="0.12"/>
<line x1="650.0" y1="480.0" x2="380.0" y2="500.0" stroke="#21262d" stroke-width="0.5" opacity="0.15"/>
<path d="M650.0,480.0 Q510.5,463.0 380.0,500.0" fill="none" stroke="#58a6ff" stroke-width="0.8" opacity="0.2"/>
<g data-module="app">
<circle cx="500.0" cy="400.0" r="87.5" fill="#2ea04355" opacity="0.1" filter="url(#softGlow)"/>
<circle cx="501.0" cy="401.0" r="35.0" fill="#000000" opacity="0.3"/>
<circle cx="500.0" cy="400.0" r="35.0" fill="#2ea043" filter="url(#nodeGlow)"/>
<circle cx="500.0" cy="389.5" r="21.0" fill="#56d364" opacity="0.15"/>
<circle cx="494.8" cy="387.8" r="7.0" fill="#ffffff" opacity="0.08"/>
<text x="500.0" y="400.0" font-family="monospace" font-size="11" font-weight="700" fill="#c9d1d9" text-anchor="middle" dy="0.35em">app</text>
<text x="500.0" y="449.0" font-family="monospace" font-size="7" fill="#484f58" text-anchor="middle" dy="0.35em">500 loc</text>
</g>
<g data-module="pkg.api">
<circle cx="650.0" cy="480.0" r="55.0" fill="#d2992255" opacity="0.1" filter="url(#softGlow)"/>
<circle cx="650.0" cy="480.0" r="22.0" fill="none" stroke="#bc8cff" stroke-width="1.5" opacity="0.4" filter="url(#churnPulse)"><animate attributeName="r" values="22.0;26.0;22.0" dur="3s" repeatCount="indefinite"/><animate attributeName="opacity" values="0.4;0.1;0.4" dur="3s" repeatCount="indefinite"/></circle>
<circle cx="651.0" cy="481.0" r="22.0" fill="#000000" opacity="0.3"/>
<circle cx="650.0" cy="480.0" r="22.0" fill="#d29922" filter="url(#nodeGlow)"/>
<circle cx="650.0" cy="473.4" r="13.2" fill="#e3b341" opacity="0.15"/>
<circle cx="646.7" cy="472.3" r="4.4" fill="#ffffff" opacity="0.08"/>
<text x="650.0" y="480.0" font-family="monospace" font-size="8" font-weight="600" fill="#c9d1d9" text-anchor="middle" dy="0.35em">api</text>
<text x="650.0" y="516.0" font-family="monospace" font-size="7" fill="#484f58" text-anchor="middle" dy="0.35em">300 loc</text>
</g>
<g data-module="pkg.db">
<circle cx="380.0" cy="500.0" r="45.0" fill="#da363355" opacity="0.1" filter="url(#softGlow)"/>
<circle cx="381.0" cy="501.0" r="18.0" fill="#000000" opacity="0.3"/>
<circle cx="380.0" cy="500.0" r="18.0" fill="#da3633" filter="url(#nodeGlow)"/>
<circle cx="380.0" cy="494.6" r="10.8" fill="#f85149" opacity="0.15"/>
<circle cx="377.3" cy="493.7" r="3.6" fill="#ffffff" opacity="0.08"/>
<circle cx="379.7" cy="500.9" r="2.3" fill="#1b1f23" opacity="0.7"/>
<circle cx="376.2" cy="505.7" r="2.8" fill="#1b1f23" opacity="0.7"/>
<circle cx="383.2" cy="501.0" r="1.7" fill="#1b1f23" opacity="0.7"/>
<circle cx="383.2" cy="493.5" r="2.2" fill="#1b1f23" opacity="0.7"/>
<text x="380.0" y="500.0" font-family="monospace" font-size="8" font-weight="600" fill="#c9d1d9" text-anchor="middle" dy="0.35em">db</text>
</g>
<g data-module="_collapsed_outer">
<circle cx="500.0" cy="650.0" r="30.0" fill="#2ea04355" opacity="0.1" filter="url(#softGlow)"/>
<circle cx="501.0" cy="651.0" r="12.0" fill="#000000" opacity="0.3"/>
<circle cx="500.0" cy="650.0" r="12.0" fill="#2ea043" filter="url(#nodeGlow)"/>
<circle cx="500.0" cy="646.4" r="7.2" fill="#56d364" opacity="0.15"/>
<circle cx="498.2" cy="645.8" r="2.4" fill="#ffffff" opacity="0.08"/>
<text x="500.0" y="650.0" font-family="monospace" font-size="7" font-weight="600" fill="#c9d1d9" text-anchor="middle" dy="0.35em">+3 more</text>
</g>
<circle cx="500.0" cy="400.0" r="50.0" fill="none" stroke="#da3633" stroke-width="0.5" stroke-dasharray="4 6" opacity="0.3"><animateTransform attributeName="transform" type="rotate" from="0 500.0 400.0" to="360 500.0 400.0" dur="60s" repeatCount="indefinite"/></circle>
<text x="500.0" y="780.0" font-family="monospace" font-size="9" fill="#30363d" text-anchor="middle" dy="0.35em">4 modules | 1050 lines | 50% healthy 25% moderate 25% complex | 4 dead</text>
<text x="985.0" y="790.0" font-family="monospace" font-size="10" fill="#161b22" text-anchor="end" dy="0.35em">canopy</text>
</svg>