<svg xmlns="http://www.w3.org/2000/svg" viewBox="0 0 1000 800">
<defs>
<radialGradient id="bgGrad" cx="50%" cy="50%" r="50%"><stop offset="0%" stop-color="#111820"/><stop offset="50%" stop-color="#0a0e14"/><stop offset="100%" stop-color="#06080c"/></radialGradient>
<filter id="nodeGlow" x="-50%" y="-50%" width="200%" height="200%"><feGaussianBlur stdDeviation="6" result="blur"/><feMerge><feMergeNode in="blur"/><feMergeNode in="SourceGraphic"/></feMerge></filter>
<filter id="softGlow" x="-50%" y="-50%" width="200%" height="200%"><feGaussianBlur stdDeviation="12"/></filter>
<filter id="churnPulse" x="-50%" y="-50%" width="200%" height="200%"><feGaussianBlur stdDeviation="4" result="blur"/><feMerge><feMergeNode in="blur"/><feMergeNode in="SourceGraphic"/></feMerge></filter>
</defs>
<rect width="1000" height="800" fill="url(#bgGrad)"/>
<circle cx="971.4" cy="53.4" r="0.9" fill="#c9d1d9" opacity="0.4"/>
<circle cx="514.2" cy="732.6" r="0.7" fill="#c9d1d9" opacity="0.3"/>
<circle cx="918.2" cy="658.1" r="0.8" fill="#c9d1d9" opacity="0.1"/>
<circle cx="956.8" cy="164.7" r="1.1" fill="#c9d1d9" opacity="0.4"/>
<circle cx="183.7" cy="193.9" r="1.0" fill="#c9d1d9" opacity="0.1"/>
<circle cx="636.9" cy="438.2" r="0.5" fill="#c9d1d9" opacity="0.1"/>
<circle cx="563.4" cy="679.3" r="0.9" fill="#c9d1d9" opacity="0.2"/>
<circle cx="774.5" cy="61.8" r="0.6" fill="#c9d1d9" opacity="0.5"/>
<circle cx="461.4" cy="616.8" r="0.7" fill="#c9d1d9" opacity="0.2"/>
<circle cx="113.3" cy="25.3" r="0.5" fill="#c9d1d9" opacity="0.4"/>
<circle cx="565.5" cy="679.4" r="0.3" fill="#c9d1d9" opacity="0.4"/>
<circle cx="291.4" cy="625.6" r="0.5" fill="#c9d1d9" opacity="0.5"/>
<circle cx="168.8" cy="628.6" r="0.6" fill="#c9d1d9" opacity="0.4"/>
<circle cx="181.3" cy="778.0" r="0.7" fill="#c9d1d9" opacity="0.4"/>
<circle cx="823.5" cy="10.5" r="1.1" fill="#c9d1d9" opacity="0.4"/>
<circle cx="974.1" cy="716.4" r="0.3" fill="#c9d1d9" opacity="0.4"/>
<circle cx="773.3" cy="132.0" r="1.0" fill="#c9d1d9" opacity="0.4"/>
<circle cx="899.5" cy="616.4" r="0.9" fill="#c9d1d9" opacity="0.4"/>
<circle cx="344.4" cy="130.9" r="0.5" fill="#c9d1d9" opacity="0.3"/>
<circle cx="964.4" cy="376.3" r="0.9" fill="#c9d1d9" opacity="0.1"/>
<circle cx="28.3" cy="618.8" r="0.6" fill="#c9d1d9" opacity="0.1"/>
<circle cx="263.3" cy="399.7" r="0.9" fill="#c9d1d9" opacity="0.2"/>
<circle cx="758.1" cy="551.6" r="0.5" fill="#c9d1d9" opacity="0.4"/>
<circle cx="139.8" cy="215.4" r="0.8" fill="#c9d1d9" opacity="0.2"/>
<circle cx="459.9" cy="118.1" r="1.1" fill="#c9d1d9" opacity="0.4"/>
<circle cx="852.3" cy="541.8" r="1.2" fill="#c9d1d9" opacity="0.5"/>
<circle cx="628.3" cy="508.9" r="1.1" fill="#c9d1d9" opacity="0.4"/>
<circle cx="552.6" cy="309.7" r="0.7" fill="#c9d1d9" opacity="0.4"/>
<circle cx="333.8" cy="80.3" r="0.6" fill="#c9d1d9" opacity="0.2"/>
<circle cx="819.0" cy="445.5" r="1.0" fill="#c9d1d9" opacity="0.1"/>
<circle cx="217.6" cy="186.6" r="0.8" fill="#c9d1d9" opacity="0.5"/>
<circle cx="93.8" cy="455.5" r="0.3" fill="#c9d1d9" opacity="0.3"/>
<circle cx="307.8" cy="170.0" r="0.4" fill="#c9d1d9" opacity="0.3"/>
<circle cx="695.2" cy="585.0" r="0.7" fill="#c9d1d9" opacity="0.2"/>
<circle cx="369.7" cy="49.0" r="0.8" fill="#c9d1d9" opacity="0.3"/>
<circle cx="221.9" cy="686.5" r="1.0" fill="#c9d1d9" opacity="0.5"/>
<circle cx="607.2" cy="427.3" r="1.1" fill="#c9d1d9" opacity="0.3"/>
<circle cx="808.2" cy="433.1" r="1.1" fill="#c9d1d9" opacity="0.5"/>
<circle cx="310.9" cy="205.7" r="0.9" fill="#c9d1d9" opacity="0.2"/>
<circle cx="159.0" cy="755.2" r="1.0" fill="#c9d1d9" opacity="0.1"/>
<circle cx="225.9" cy="704.4" r="0.5" fill="#c9d1d9" opacity="0.3"/>
<circle cx="489.4" cy="452.3" r="0.4" fill="#c9d1d9" opacity="0.5"/>
<circle cx="624.6" cy="308.5" r="0.8" fill="#c9d1d9" opacity="0.2"/>
<circle cx="383.6" cy="733.5" r="0.7" fill="#c9d1d9" opacity="0.3"/>
<circle cx="905.5" cy="777.1" r="0.8" fill="#c9d1d9" opacity="0.4"/>
<circle cx="525.0" cy="361.7" r="0.4" fill="#c9d1d9" opacity="0.3"/>
<circle cx="567.7" cy="608.0" r="0.6" fill="#c9d1d9" opacity="0.2"/>
<circle cx="412.6" cy="515.8" r="1.1" fill="#c9d1d9" opacity="0.5"/>
<circle cx="679.6" cy="622.3" r="0.7" fill="#c9d1d9" opacity="0.2"/>
<circle cx="472.9" cy="729.2" r="1.0" fill="#c9d1d9" opacity="0.2"/>
<circle cx="22.8" cy="786.8" r="0.5" fill="#c9d1d9" opacity="0.1"/>
<circle cx="323.5" cy="402.4" r="0.7" fill="#c9d1d9" opacity="0.2"/>
<circle cx="490.2" cy="722.3" r="0.9" fill="#c9d1d9" opacity="0.2"/>
<circle cx="132.8" cy="769.9" r="0.9" fill="#c9d1d9" opacity="0.2"/>
<circle cx="443.7" cy="529.9" r="1.1" fill="#c9d1d9" opacity="0.4"/>
<circle cx="7.3" cy="297.5" r="0.5" fill="#c9d1d9" opacity="0.2"/>
<circle cx="853.8" cy="544.4" r="0.6" fill="#c9d1d9" opacity="0.2"/>
<circle cx="588.6" cy="98.1" r="0.5" fill="#c9d1d9" opacity="0.5"/>
<circle cx="948.6" cy="514.0" r="0.8" fill="#c9d1d9" opacity="0.3"/>
<circle cx="68.3" cy="396.5" r="0.7" fill="#c9d1d9" opacity="0.3"/>
<circle cx="500.0" cy="400.0" r="100.0" fill="none" stroke="#30363d" stroke-width="0.5" opacity="0.3"/>
<circle cx="500.0" cy="400.0" r="173.3" fill="none" stroke="#30363d" stroke-width="0.5" opacity="0.3"/>
<circle cx="500.0" cy="400.0" r="246.7" fill="none" stroke="#30363d" stroke-width="0.5" opacity="0.3"/>
<circle cx="500.0" cy="400.0" r="320.0" fill="none" stroke="#30363d" stroke-width="0.5" opacity="0.3"/>
<text x="465.7" y="306.1" font-family="monospace" font-size="8" font-weight="600" fill="#484f58" text-anchor="start" transform="rotate(-70 465.7 306.1)">Collectors</text>
<text x="440.6" y="237.2" font-family="monospace" font-size="8" font-weight="600" fill="#484f58" text-anchor="start" transform="rotate(-70 440.6 237.2)">Layout</text>
<text x="415.4" y="168.3" font-family="monospace" font-size="8" font-weight="600" fill="#484f58" text-anchor="start" transform="rotate(-70 415.4 168.3)">Render</text>
<text x="390.3" y="99.4" font-family="monospace" font-size="8" font-weight="600" fill="#484f58" text-anchor="start" transform="rotate(-70 390.3 99.4)">Uncategorized</text>
<line x1="549.0" y1="400.0" x2="708.8" y2="168.1" stroke="#bc8cff" stroke-width="0.5" opacity="0.12"/>
<line x1="549.0" y1="400.0" x2="466.6" y2="81.8" stroke="#bc8cff" stroke-width="0.5" opacity="0.12"/>
<line x1="549.0" y1="400.0" x2="580.9" y2="458.8" stroke="#bc8cff" stroke-width="0.5" opacity="0.12"/>
<line x1="549.0" y1="400.0" x2="446.4" y2="564.8" stroke="#bc8cff" stroke-width="0.5" opacity="0.12"/>
<line x1="549.0" y1="400.0" x2="253.3" y2="400.0" stroke="#bc8cff" stroke-width="0.5" opacity="0.12"/>
<line x1="500.0" y1="351.0" x2="708.8" y2="168.1" stroke="#bc8cff" stroke-width="0.5" opacity="0.12"/>
<path d="M466.6,81.8 Q561.4,207.4 708.8,168.1" fill="none" stroke="#58a6ff" stroke-width="0.8" opacity="0.2"/>
<path d="M466.6,81.8 Q516.6,309.2 580.9,458.8" fill="none" stroke="#58a6ff" stroke-width="0.8" opacity="0.2"/>
<path d="M580.9,458.8 Q601.4,339.4 708.8,168.1" fill="none" stroke="#58a6ff" stroke-width="0.8" opacity="0.2"/>
<path d="M446.4,564.8 Q554.3,376.5 708.8,168.1" fill="none" stroke="#58a6ff" stroke-width="0.8" opacity="0.2"/>
<path d="M446.4,564.8 Q481.3,440.5 500.0,351.0" fill="none" stroke="#58a6ff" stroke-width="0.8" opacity="0.2"/>
<path d="M446.4,564.8 Q481.3,474.8 500.0,449.0" fill="none" stroke="#58a6ff" stroke-width="0.8" opacity="0.2"/>
<path d="M253.3,400.0 Q413.7,382.9 500.0,351.0" fill="none" stroke="#58a6ff" stroke-width="0.8" opacity="0.2"/>
<path d="M253.3,400.0 Q394.9,457.7 446.4,564.8" fill="none" stroke="#58a6ff" stroke-width="0.8" opacity="0.2"/>
<path d="M253.3,400.0 Q413.7,417.1 500.0,449.0" fill="none" stroke="#58a6ff" stroke-width="0.8" opacity="0.2"/>
<g data-module="canopy.config">
<circle cx="500.0" cy="351.0" r="87.5" fill="#2ea04355" opacity="0.1" filter="url(#softGlow)"/>
<circle cx="501.0" cy="352.0" r="35.0" fill="#000000" opacity="0.3"/>
<circle cx="500.0" cy="351.0" r="35.0" fill="#2ea043" filter="url(#nodeGlow)"/>
<circle cx="500.0" cy="340.5" r="21.0" fill="#56d364" opacity="0.15"/>
<circle cx="494.8" cy="338.8" r="7.0" fill="#ffffff" opacity="0.08"/>
<circle cx="478.4" cy="347.6" r="1.8" fill="#1b1f23" opacity="0.7"/>
<circle cx="484.2" cy="336.8" r="1.5" fill="#1b1f23" opacity="0.7"/>
<text x="500.0" y="351.0" font-family="monospace" font-size="11" font-weight="700" fill="#c9d1d9" text-anchor="middle" dy="0.35em">config</text>
<text x="500.0" y="400.0" font-family="monospace" font-size="7" fill="#484f58" text-anchor="middle" dy="0.35em">159 loc</text>
</g>
<g data-module="canopy.cli">
<circle cx="549.0" cy="400.0" r="87.5" fill="#2ea04355" opacity="0.1" filter="url(#softGlow)"/>
<circle cx="550.0" cy="401.0" r="35.0" fill="#000000" opacity="0.3"/>
<circle cx="549.0" cy="400.0" r="35.0" fill="#2ea043" filter="url(#nodeGlow)"/>
<circle cx="549.0" cy="389.5" r="21.0" fill="#56d364" opacity="0.15"/>
<circle cx="543.8" cy="387.8" r="7.0" fill="#ffffff" opacity="0.08"/>
<text x="549.0" y="400.0" font-family="monospace" font-size="11" font-weight="700" fill="#c9d1d9" text-anchor="middle" dy="0.35em">cli</text>
<text x="549.0" y="449.0" font-family="monospace" font-size="7" fill="#484f58" text-anchor="middle" dy="0.35em">110 loc</text>
</g>
<g data-module="canopy.models">
<circle cx="500.0" cy="449.0" r="87.5" fill="#2ea04355" opacity="0.1" filter="url(#softGlow)"/>
<circle cx="501.0" cy="450.0" r="35.0" fill="#000000" opacity="0.3"/>
<circle cx="500.0" cy="449.0" r="35.0" fill="#2ea043" filter="url(#nodeGlow)"/>
<circle cx="500.0" cy="438.5" r="21.0" fill="#56d364" opacity="0.15"/>
<circle cx="494.8" cy="436.8" r="7.0" fill="#ffffff" opacity="0.08"/>
<text x="500.0" y="449.0" font-family="monospace" font-size="11" font-weight="700" fill="#c9d1d9" text-anchor="middle" dy="0.35em">models</text>
<text x="500.0" y="498.0" font-family="monospace" font-size="7" fill="#484f58" text-anchor="middle" dy="0.35em">59 loc</text>
</g>
<g data-module="canopy.exceptions">
<circle cx="451.0" cy="400.0" r="87.5" fill="#2ea04355" opacity="0.1" filter="url(#softGlow)"/>
<circle cx="452.0" cy="401.0" r="35.0" fill="#000000" opacity="0.3"/>
<circle cx="451.0" cy="400.0" r="35.0" fill="#2ea043" filter="url(#nodeGlow)"/>
<circle cx="451.0" cy="389.5" r="21.0" fill="#56d364" opacity="0.15"/>
<circle cx="445.8" cy="387.8" r="7.0" fill="#ffffff" opacity="0.08"/>
<circle cx="443.9" cy="386.0" r="2.6" fill="#1b1f23" opacity="0.7"/>
<circle cx="465.0" cy="400.8" r="1.6" fill="#1b1f23" opacity="0.7"/>
<text x="451.0" y="400.0" font-family="monospace" font-size="11" font-weight="700" fill="#c9d1d9" text-anchor="middle" dy="0.35em">exception..</text>
<text x="451.0" y="449.0" font-family="monospace" font-size="7" fill="#484f58" text-anchor="middle" dy="0.35em">18 loc</text>
</g>
<g data-module="canopy.collectors">
<circle cx="580.9" cy="458.8" r="37.8" fill="#2ea04355" opacity="0.1" filter="url(#softGlow)"/>
<circle cx="581.9" cy="459.8" r="15.1" fill="#000000" opacity="0.3"/>
<circle cx="580.9" cy="458.8" r="15.1" fill="#2ea043" filter="url(#nodeGlow)"/>
<circle cx="580.9" cy="454.2" r="9.1" fill="#56d364" opacity="0.15"/>
<circle cx="578.6" cy="453.5" r="3.0" fill="#ffffff" opacity="0.08"/>
<circle cx="581.5" cy="457.6" r="2.4" fill="#1b1f23" opacity="0.7"/>
<circle cx="580.2" cy="457.6" r="2.2" fill="#1b1f23" opacity="0.7"/>
<circle cx="580.9" cy="459.5" r="1.6" fill="#1b1f23" opacity="0.7"/>
<circle cx="577.3" cy="460.2" r="2.1" fill="#1b1f23" opacity="0.7"/>
<circle cx="581.8" cy="458.1" r="2.9" fill="#1b1f23" opacity="0.7"/>
<circle cx="578.8" cy="466.8" r="1.8" fill="#1b1f23" opacity="0.7"/>
<text x="580.9" y="458.8" font-family="monospace" font-size="8" font-weight="600" fill="#c9d1d9" text-anchor="middle" dy="0.35em">collector..</text>
</g>
<g data-module="canopy.layout">
<circle cx="446.4" cy="564.8" r="33.3" fill="#2ea04355" opacity="0.1" filter="url(#softGlow)"/>
<circle cx="447.4" cy="565.8" r="13.3" fill="#000000" opacity="0.3"/>
<circle cx="446.4" cy="564.8" r="13.3" fill="#2ea043" filter="url(#nodeGlow)"/>
<circle cx="446.4" cy="560.9" r="8.0" fill="#56d364" opacity="0.15"/>
<circle cx="444.4" cy="560.2" r="2.7" fill="#ffffff" opacity="0.08"/>
<text x="446.4" y="564.8" font-family="monospace" font-size="7" font-weight="600" fill="#c9d1d9" text-anchor="middle" dy="0.35em">layout</text>
</g>
<g data-module="canopy.render">
<circle cx="253.3" cy="400.0" r="72.8" fill="#2ea04355" opacity="0.1" filter="url(#softGlow)"/>
<circle cx="254.3" cy="401.0" r="29.1" fill="#000000" opacity="0.3"/>
<circle cx="253.3" cy="400.0" r="29.1" fill="#2ea043" filter="url(#nodeGlow)"/>
<circle cx="253.3" cy="391.3" r="17.5" fill="#56d364" opacity="0.15"/>
<circle cx="249.0" cy="389.8" r="5.8" fill="#ffffff" opacity="0.08"/>
<circle cx="259.3" cy="398.9" r="1.5" fill="#1b1f23" opacity="0.7"/>
<text x="253.3" y="400.0" font-family="monospace" font-size="9" font-weight="600" fill="#c9d1d9" text-anchor="middle" dy="0.35em">render</text>
<text x="253.3" y="443.1" font-family="monospace" font-size="7" fill="#484f58" text-anchor="middle" dy="0.35em">1509 loc</text>
</g>
<g data-module="canopy.aggregator">
<circle cx="466.6" cy="81.8" r="28.1" fill="#2ea04355" opacity="0.1" filter="url(#softGlow)"/>
<circle cx="467.6" cy="82.8" r="11.2" fill="#000000" opacity="0.3"/>
<circle cx="466.6" cy="81.8" r="11.2" fill="#2ea043" filter="url(#nodeGlow)"/>
<circle cx="466.6" cy="78.4" r="6.7" fill="#56d364" opacity="0.15"/>
<circle cx="464.9" cy="77.8" r="2.2" fill="#ffffff" opacity="0.08"/>
<text x="466.6" y="81.8" font-family="monospace" font-size="7" font-weight="600" fill="#c9d1d9" text-anchor="middle" dy="0.35em">aggregato..</text>
</g>
<g data-module="canopy">
<circle cx="708.8" cy="168.1" r="25.0" fill="#2ea04355" opacity="0.1" filter="url(#softGlow)"/>
<circle cx="709.8" cy="169.1" r="10.0" fill="#000000" opacity="0.3"/>
<circle cx="708.8" cy="168.1" r="10.0" fill="#2ea043" filter="url(#nodeGlow)"/>
<circle cx="708.8" cy="165.1" r="6.0" fill="#56d364" opacity="0.15"/>
<circle cx="707.3" cy="164.6" r="2.0" fill="#ffffff" opacity="0.08"/>
<text x="708.8" y="168.1" font-family="monospace" font-size="7" font-weight="600" fill="#c9d1d9" text-anchor="middle" dy="0.35em">canopy</text>
</g>
<circle cx="500.0" cy="400.0" r="50.0" fill="none" stroke="#da3633" stroke-width="0.5" stroke-dasharray="4 6" opacity="0.3"><animateTransform attributeName="transform" type="rotate" from="0 500.0 400.0" to="360 500.0 400.0" dur="60s" repeatCount="indefinite"/></circle>
<text x="500.0" y="780.0" font-family="monospace" font-size="9" fill="#30363d" text-anchor="middle" dy="0.35em">9 modules | 2803 lines | 100% healthy 0% moderate 0% complex | 11 dead</text>
<text x="985.0" y="790.0" font-family="monospace" font-size="10" fill="#161b22" text-anchor="end" dy="0.35em">canopy</text>
</svg>